<mxfile host="app.diagrams.net" modified="2024-03-13T00:43:41.051Z" agent="Mozilla/5.0 (Macintosh; Intel Mac OS X 10_15_7) AppleWebKit/605.1.15 (KHTML, like Gecko) Version/17.0 Safari/605.1.15" etag="ZVhFp-cm3TIO611h9C-m" version="24.0.5" type="github">
  <diagram name="Page-1" id="ToP6RRZnTzCb9aeOAOeR">
    <mxGraphModel dx="553" dy="612" grid="1" gridSize="10" guides="1" tooltips="1" connect="1" arrows="1" fold="1" page="1" pageScale="1" pageWidth="827" pageHeight="1169" math="0" shadow="0">
      <root>
        <mxCell id="0" />
        <mxCell id="1" parent="0" />
        <mxCell id="CHE-bnxSJdCwK3giHahC-1" value="Student" style="rounded=0;whiteSpace=wrap;html=1;" parent="1" vertex="1">
          <mxGeometry x="180" y="210" width="80" height="30" as="geometry" />
        </mxCell>
        <mxCell id="CHE-bnxSJdCwK3giHahC-2" value="Name" style="ellipse;whiteSpace=wrap;html=1;" parent="1" vertex="1">
          <mxGeometry x="130" y="100" width="60" height="20" as="geometry" />
        </mxCell>
        <mxCell id="CHE-bnxSJdCwK3giHahC-3" value="Roll #" style="ellipse;whiteSpace=wrap;html=1;" parent="1" vertex="1">
          <mxGeometry x="60" y="120" width="70" height="20" as="geometry" />
        </mxCell>
        <mxCell id="CHE-bnxSJdCwK3giHahC-4" value="" style="endArrow=none;html=1;rounded=0;" parent="1" edge="1">
          <mxGeometry width="50" height="50" relative="1" as="geometry">
            <mxPoint x="60" y="170" as="sourcePoint" />
            <mxPoint x="110" y="170" as="targetPoint" />
            <Array as="points">
              <mxPoint x="60" y="170" />
            </Array>
          </mxGeometry>
        </mxCell>
        <mxCell id="CHE-bnxSJdCwK3giHahC-5" value="Sex" style="ellipse;whiteSpace=wrap;html=1;" parent="1" vertex="1">
          <mxGeometry x="190" y="130" width="60" height="20" as="geometry" />
        </mxCell>
        <mxCell id="CHE-bnxSJdCwK3giHahC-6" value="phone number" style="ellipse;whiteSpace=wrap;html=1;" parent="1" vertex="1">
          <mxGeometry x="60" y="310" width="100" height="30" as="geometry" />
        </mxCell>
        <mxCell id="CHE-bnxSJdCwK3giHahC-7" value="DOB" style="ellipse;whiteSpace=wrap;html=1;" parent="1" vertex="1">
          <mxGeometry x="50" y="160" width="80" height="40" as="geometry" />
        </mxCell>
        <mxCell id="CHE-bnxSJdCwK3giHahC-8" value="Age" style="ellipse;whiteSpace=wrap;html=1;align=center;dashed=1;" parent="1" vertex="1">
          <mxGeometry x="30" y="210" width="100" height="40" as="geometry" />
        </mxCell>
        <mxCell id="CHE-bnxSJdCwK3giHahC-9" value="Email" style="ellipse;shape=doubleEllipse;margin=3;whiteSpace=wrap;html=1;align=center;" parent="1" vertex="1">
          <mxGeometry x="35" y="260" width="100" height="40" as="geometry" />
        </mxCell>
        <mxCell id="CHE-bnxSJdCwK3giHahC-11" value="Local Address" style="ellipse;whiteSpace=wrap;html=1;align=center;" parent="1" vertex="1">
          <mxGeometry x="274" y="250" width="90" height="30" as="geometry" />
        </mxCell>
        <mxCell id="CHE-bnxSJdCwK3giHahC-12" value="Hostel name" style="ellipse;whiteSpace=wrap;html=1;align=center;" parent="1" vertex="1">
          <mxGeometry x="356" y="280" width="90" height="30" as="geometry" />
        </mxCell>
        <mxCell id="CHE-bnxSJdCwK3giHahC-13" value="Room number" style="ellipse;whiteSpace=wrap;html=1;align=center;" parent="1" vertex="1">
          <mxGeometry x="364" y="220" width="86" height="30" as="geometry" />
        </mxCell>
        <mxCell id="CHE-bnxSJdCwK3giHahC-14" value="House Address" style="ellipse;whiteSpace=wrap;html=1;align=center;" parent="1" vertex="1">
          <mxGeometry x="280" y="140" width="100" height="40" as="geometry" />
        </mxCell>
        <mxCell id="CHE-bnxSJdCwK3giHahC-15" value="house number" style="ellipse;whiteSpace=wrap;html=1;align=center;" parent="1" vertex="1">
          <mxGeometry x="290" y="90" width="90" height="20" as="geometry" />
        </mxCell>
        <mxCell id="CHE-bnxSJdCwK3giHahC-16" value="Street" style="ellipse;whiteSpace=wrap;html=1;align=center;" parent="1" vertex="1">
          <mxGeometry x="370" y="180" width="70" height="20" as="geometry" />
        </mxCell>
        <mxCell id="CHE-bnxSJdCwK3giHahC-17" value="City" style="ellipse;whiteSpace=wrap;html=1;align=center;" parent="1" vertex="1">
          <mxGeometry x="370" y="110" width="50" height="20" as="geometry" />
        </mxCell>
        <mxCell id="CHE-bnxSJdCwK3giHahC-18" value="PIN" style="ellipse;whiteSpace=wrap;html=1;align=center;" parent="1" vertex="1">
          <mxGeometry x="410" y="150" width="40" height="20" as="geometry" />
        </mxCell>
        <mxCell id="CHE-bnxSJdCwK3giHahC-34" value="" style="endArrow=none;html=1;rounded=0;exitX=0.5;exitY=1;exitDx=0;exitDy=0;entryX=0;entryY=0.5;entryDx=0;entryDy=0;" parent="1" source="CHE-bnxSJdCwK3giHahC-11" target="CHE-bnxSJdCwK3giHahC-12" edge="1">
          <mxGeometry width="50" height="50" relative="1" as="geometry">
            <mxPoint x="414" y="290" as="sourcePoint" />
            <mxPoint x="464" y="240" as="targetPoint" />
          </mxGeometry>
        </mxCell>
        <mxCell id="CHE-bnxSJdCwK3giHahC-36" value="" style="endArrow=none;html=1;rounded=0;exitX=0.5;exitY=0;exitDx=0;exitDy=0;entryX=0;entryY=0.5;entryDx=0;entryDy=0;" parent="1" source="CHE-bnxSJdCwK3giHahC-11" target="CHE-bnxSJdCwK3giHahC-13" edge="1">
          <mxGeometry width="50" height="50" relative="1" as="geometry">
            <mxPoint x="414" y="290" as="sourcePoint" />
            <mxPoint x="464" y="240" as="targetPoint" />
          </mxGeometry>
        </mxCell>
        <mxCell id="CHE-bnxSJdCwK3giHahC-37" value="" style="endArrow=none;html=1;rounded=0;exitX=0.75;exitY=1;exitDx=0;exitDy=0;entryX=0;entryY=0.5;entryDx=0;entryDy=0;" parent="1" source="CHE-bnxSJdCwK3giHahC-1" target="CHE-bnxSJdCwK3giHahC-11" edge="1">
          <mxGeometry width="50" height="50" relative="1" as="geometry">
            <mxPoint x="440" y="310" as="sourcePoint" />
            <mxPoint x="490" y="260" as="targetPoint" />
          </mxGeometry>
        </mxCell>
        <mxCell id="CHE-bnxSJdCwK3giHahC-39" value="" style="endArrow=none;html=1;rounded=0;entryX=0;entryY=1;entryDx=0;entryDy=0;exitX=0.925;exitY=0.033;exitDx=0;exitDy=0;exitPerimeter=0;" parent="1" source="CHE-bnxSJdCwK3giHahC-1" target="CHE-bnxSJdCwK3giHahC-14" edge="1">
          <mxGeometry width="50" height="50" relative="1" as="geometry">
            <mxPoint x="260" y="200" as="sourcePoint" />
            <mxPoint x="490" y="260" as="targetPoint" />
          </mxGeometry>
        </mxCell>
        <mxCell id="CHE-bnxSJdCwK3giHahC-40" value="" style="endArrow=none;html=1;rounded=0;entryX=0;entryY=0.5;entryDx=0;entryDy=0;exitX=0.5;exitY=1;exitDx=0;exitDy=0;" parent="1" source="CHE-bnxSJdCwK3giHahC-14" target="CHE-bnxSJdCwK3giHahC-16" edge="1">
          <mxGeometry width="50" height="50" relative="1" as="geometry">
            <mxPoint x="430" y="325" as="sourcePoint" />
            <mxPoint x="480" y="275" as="targetPoint" />
          </mxGeometry>
        </mxCell>
        <mxCell id="CHE-bnxSJdCwK3giHahC-41" value="" style="endArrow=none;html=1;rounded=0;entryX=0;entryY=0.5;entryDx=0;entryDy=0;exitX=1;exitY=0.5;exitDx=0;exitDy=0;" parent="1" source="CHE-bnxSJdCwK3giHahC-14" target="CHE-bnxSJdCwK3giHahC-18" edge="1">
          <mxGeometry width="50" height="50" relative="1" as="geometry">
            <mxPoint x="430" y="325" as="sourcePoint" />
            <mxPoint x="480" y="275" as="targetPoint" />
          </mxGeometry>
        </mxCell>
        <mxCell id="CHE-bnxSJdCwK3giHahC-42" value="" style="endArrow=none;html=1;rounded=0;entryX=0.5;entryY=1;entryDx=0;entryDy=0;exitX=1;exitY=0;exitDx=0;exitDy=0;" parent="1" source="CHE-bnxSJdCwK3giHahC-14" target="CHE-bnxSJdCwK3giHahC-17" edge="1">
          <mxGeometry width="50" height="50" relative="1" as="geometry">
            <mxPoint x="430" y="325" as="sourcePoint" />
            <mxPoint x="480" y="275" as="targetPoint" />
          </mxGeometry>
        </mxCell>
        <mxCell id="CHE-bnxSJdCwK3giHahC-43" value="" style="endArrow=none;html=1;rounded=0;entryX=0.5;entryY=1;entryDx=0;entryDy=0;" parent="1" source="CHE-bnxSJdCwK3giHahC-14" target="CHE-bnxSJdCwK3giHahC-15" edge="1">
          <mxGeometry width="50" height="50" relative="1" as="geometry">
            <mxPoint x="430" y="325" as="sourcePoint" />
            <mxPoint x="480" y="275" as="targetPoint" />
          </mxGeometry>
        </mxCell>
        <mxCell id="CHE-bnxSJdCwK3giHahC-44" value="" style="endArrow=none;html=1;rounded=0;entryX=0.5;entryY=1;entryDx=0;entryDy=0;exitX=0.5;exitY=0;exitDx=0;exitDy=0;" parent="1" source="CHE-bnxSJdCwK3giHahC-1" target="CHE-bnxSJdCwK3giHahC-5" edge="1">
          <mxGeometry width="50" height="50" relative="1" as="geometry">
            <mxPoint x="440" y="310" as="sourcePoint" />
            <mxPoint x="490" y="260" as="targetPoint" />
          </mxGeometry>
        </mxCell>
        <mxCell id="CHE-bnxSJdCwK3giHahC-45" value="" style="endArrow=none;html=1;rounded=0;entryX=0.5;entryY=1;entryDx=0;entryDy=0;exitX=0.25;exitY=0;exitDx=0;exitDy=0;" parent="1" source="CHE-bnxSJdCwK3giHahC-1" target="CHE-bnxSJdCwK3giHahC-2" edge="1">
          <mxGeometry width="50" height="50" relative="1" as="geometry">
            <mxPoint x="440" y="310" as="sourcePoint" />
            <mxPoint x="490" y="260" as="targetPoint" />
          </mxGeometry>
        </mxCell>
        <mxCell id="CHE-bnxSJdCwK3giHahC-46" value="" style="endArrow=none;html=1;rounded=0;entryX=1;entryY=0.5;entryDx=0;entryDy=0;exitX=0;exitY=0;exitDx=0;exitDy=0;" parent="1" source="CHE-bnxSJdCwK3giHahC-1" target="CHE-bnxSJdCwK3giHahC-3" edge="1">
          <mxGeometry width="50" height="50" relative="1" as="geometry">
            <mxPoint x="440" y="310" as="sourcePoint" />
            <mxPoint x="490" y="260" as="targetPoint" />
          </mxGeometry>
        </mxCell>
        <mxCell id="CHE-bnxSJdCwK3giHahC-47" value="" style="endArrow=none;html=1;rounded=0;entryX=1;entryY=0.5;entryDx=0;entryDy=0;exitX=0;exitY=0.25;exitDx=0;exitDy=0;" parent="1" source="CHE-bnxSJdCwK3giHahC-1" target="CHE-bnxSJdCwK3giHahC-7" edge="1">
          <mxGeometry width="50" height="50" relative="1" as="geometry">
            <mxPoint x="440" y="310" as="sourcePoint" />
            <mxPoint x="490" y="260" as="targetPoint" />
          </mxGeometry>
        </mxCell>
        <mxCell id="CHE-bnxSJdCwK3giHahC-48" value="" style="endArrow=none;html=1;rounded=0;entryX=1;entryY=0.5;entryDx=0;entryDy=0;exitX=0;exitY=0.5;exitDx=0;exitDy=0;" parent="1" source="CHE-bnxSJdCwK3giHahC-1" target="CHE-bnxSJdCwK3giHahC-8" edge="1">
          <mxGeometry width="50" height="50" relative="1" as="geometry">
            <mxPoint x="440" y="310" as="sourcePoint" />
            <mxPoint x="490" y="260" as="targetPoint" />
          </mxGeometry>
        </mxCell>
        <mxCell id="CHE-bnxSJdCwK3giHahC-49" value="" style="endArrow=none;html=1;rounded=0;exitX=0;exitY=1;exitDx=0;exitDy=0;" parent="1" source="CHE-bnxSJdCwK3giHahC-1" edge="1">
          <mxGeometry width="50" height="50" relative="1" as="geometry">
            <mxPoint x="440" y="310" as="sourcePoint" />
            <mxPoint x="130" y="280" as="targetPoint" />
          </mxGeometry>
        </mxCell>
        <mxCell id="CHE-bnxSJdCwK3giHahC-50" value="" style="endArrow=none;html=1;rounded=0;entryX=0.5;entryY=1;entryDx=0;entryDy=0;exitX=1;exitY=0;exitDx=0;exitDy=0;" parent="1" source="CHE-bnxSJdCwK3giHahC-6" target="CHE-bnxSJdCwK3giHahC-1" edge="1">
          <mxGeometry width="50" height="50" relative="1" as="geometry">
            <mxPoint x="440" y="310" as="sourcePoint" />
            <mxPoint x="490" y="260" as="targetPoint" />
          </mxGeometry>
        </mxCell>
        <mxCell id="CHE-bnxSJdCwK3giHahC-51" value="Department" style="rounded=0;whiteSpace=wrap;html=1;" parent="1" vertex="1">
          <mxGeometry x="630" y="215" width="80" height="30" as="geometry" />
        </mxCell>
        <mxCell id="CHE-bnxSJdCwK3giHahC-52" value="Name" style="ellipse;whiteSpace=wrap;html=1;align=center;" parent="1" vertex="1">
          <mxGeometry x="570" y="140" width="100" height="40" as="geometry" />
        </mxCell>
        <mxCell id="CHE-bnxSJdCwK3giHahC-53" value="Department #" style="ellipse;whiteSpace=wrap;html=1;align=center;fontStyle=4;" parent="1" vertex="1">
          <mxGeometry x="490" y="180" width="100" height="40" as="geometry" />
        </mxCell>
        <mxCell id="CHE-bnxSJdCwK3giHahC-56" value="Location" style="ellipse;whiteSpace=wrap;html=1;align=center;" parent="1" vertex="1">
          <mxGeometry x="520" y="240" width="100" height="40" as="geometry" />
        </mxCell>
        <mxCell id="CHE-bnxSJdCwK3giHahC-57" value="Phone Number" style="ellipse;whiteSpace=wrap;html=1;align=center;" parent="1" vertex="1">
          <mxGeometry x="710" y="270" width="100" height="40" as="geometry" />
        </mxCell>
        <mxCell id="CHE-bnxSJdCwK3giHahC-58" value="HOD" style="ellipse;whiteSpace=wrap;html=1;align=center;" parent="1" vertex="1">
          <mxGeometry x="710" y="150" width="100" height="40" as="geometry" />
        </mxCell>
        <mxCell id="CHE-bnxSJdCwK3giHahC-59" value="" style="endArrow=none;html=1;rounded=0;entryX=0;entryY=0.5;entryDx=0;entryDy=0;exitX=0.71;exitY=0.05;exitDx=0;exitDy=0;exitPerimeter=0;" parent="1" source="CHE-bnxSJdCwK3giHahC-56" target="CHE-bnxSJdCwK3giHahC-51" edge="1">
          <mxGeometry width="50" height="50" relative="1" as="geometry">
            <mxPoint x="440" y="320" as="sourcePoint" />
            <mxPoint x="490" y="270" as="targetPoint" />
          </mxGeometry>
        </mxCell>
        <mxCell id="CHE-bnxSJdCwK3giHahC-60" value="" style="endArrow=none;html=1;rounded=0;exitX=1;exitY=1;exitDx=0;exitDy=0;" parent="1" source="CHE-bnxSJdCwK3giHahC-53" edge="1">
          <mxGeometry width="50" height="50" relative="1" as="geometry">
            <mxPoint x="580" y="280" as="sourcePoint" />
            <mxPoint x="630" y="230" as="targetPoint" />
          </mxGeometry>
        </mxCell>
        <mxCell id="CHE-bnxSJdCwK3giHahC-61" value="" style="endArrow=none;html=1;rounded=0;entryX=0.5;entryY=0;entryDx=0;entryDy=0;exitX=0.7;exitY=1;exitDx=0;exitDy=0;exitPerimeter=0;" parent="1" source="CHE-bnxSJdCwK3giHahC-52" target="CHE-bnxSJdCwK3giHahC-51" edge="1">
          <mxGeometry width="50" height="50" relative="1" as="geometry">
            <mxPoint x="440" y="320" as="sourcePoint" />
            <mxPoint x="490" y="270" as="targetPoint" />
          </mxGeometry>
        </mxCell>
        <mxCell id="CHE-bnxSJdCwK3giHahC-62" value="" style="endArrow=none;html=1;rounded=0;entryX=0.4;entryY=1.025;entryDx=0;entryDy=0;entryPerimeter=0;exitX=0.75;exitY=0;exitDx=0;exitDy=0;" parent="1" source="CHE-bnxSJdCwK3giHahC-51" target="CHE-bnxSJdCwK3giHahC-58" edge="1">
          <mxGeometry width="50" height="50" relative="1" as="geometry">
            <mxPoint x="440" y="320" as="sourcePoint" />
            <mxPoint x="490" y="270" as="targetPoint" />
          </mxGeometry>
        </mxCell>
        <mxCell id="CHE-bnxSJdCwK3giHahC-63" value="" style="endArrow=none;html=1;rounded=0;entryX=0;entryY=0;entryDx=0;entryDy=0;exitX=0.5;exitY=1;exitDx=0;exitDy=0;" parent="1" source="CHE-bnxSJdCwK3giHahC-51" target="CHE-bnxSJdCwK3giHahC-57" edge="1">
          <mxGeometry width="50" height="50" relative="1" as="geometry">
            <mxPoint x="440" y="320" as="sourcePoint" />
            <mxPoint x="490" y="270" as="targetPoint" />
          </mxGeometry>
        </mxCell>
        <mxCell id="CHE-bnxSJdCwK3giHahC-64" value="Student" style="rounded=0;whiteSpace=wrap;html=1;" parent="1" vertex="1">
          <mxGeometry x="90" y="680" width="90" height="20" as="geometry" />
        </mxCell>
        <mxCell id="CHE-bnxSJdCwK3giHahC-65" value="Department" style="rounded=0;whiteSpace=wrap;html=1;" parent="1" vertex="1">
          <mxGeometry x="620" y="670" width="80" height="30" as="geometry" />
        </mxCell>
        <mxCell id="CHE-bnxSJdCwK3giHahC-66" value="belongs to" style="rhombus;whiteSpace=wrap;html=1;" parent="1" vertex="1">
          <mxGeometry x="330" y="650" width="80" height="80" as="geometry" />
        </mxCell>
        <mxCell id="CHE-bnxSJdCwK3giHahC-67" value="" style="endArrow=none;html=1;rounded=0;exitX=1;exitY=0.5;exitDx=0;exitDy=0;" parent="1" source="CHE-bnxSJdCwK3giHahC-66" edge="1">
          <mxGeometry relative="1" as="geometry">
            <mxPoint x="460" y="690" as="sourcePoint" />
            <mxPoint x="620" y="690" as="targetPoint" />
          </mxGeometry>
        </mxCell>
        <mxCell id="CHE-bnxSJdCwK3giHahC-68" value="1" style="resizable=0;html=1;whiteSpace=wrap;align=right;verticalAlign=bottom;" parent="CHE-bnxSJdCwK3giHahC-67" connectable="0" vertex="1">
          <mxGeometry x="1" relative="1" as="geometry" />
        </mxCell>
        <mxCell id="CHE-bnxSJdCwK3giHahC-69" value="" style="endArrow=none;html=1;rounded=0;entryX=1;entryY=0.5;entryDx=0;entryDy=0;exitX=0;exitY=0.5;exitDx=0;exitDy=0;" parent="1" source="CHE-bnxSJdCwK3giHahC-66" target="CHE-bnxSJdCwK3giHahC-64" edge="1">
          <mxGeometry relative="1" as="geometry">
            <mxPoint x="380" y="600" as="sourcePoint" />
            <mxPoint x="540" y="600" as="targetPoint" />
          </mxGeometry>
        </mxCell>
        <mxCell id="CHE-bnxSJdCwK3giHahC-70" value="N" style="resizable=0;html=1;whiteSpace=wrap;align=right;verticalAlign=bottom;" parent="CHE-bnxSJdCwK3giHahC-69" connectable="0" vertex="1">
          <mxGeometry x="1" relative="1" as="geometry" />
        </mxCell>
      </root>
    </mxGraphModel>
  </diagram>
</mxfile>
